<?xml version="1.0" encoding="UTF-8"?>
<svg xmlns="http://www.w3.org/2000/svg" xmlns:xlink="http://www.w3.org/1999/xlink" width="24pt" height="24pt" viewBox="0 0 24 24" version="1.1">
<g id="surface13285861">
<path style=" stroke:none;fill-rule:nonzero;fill:rgb(100%,100%,100%);fill-opacity:1;" d="M 10.804688 2 C 10.289062 2 9.796875 2.203125 9.429688 2.570312 L 9 3 L 4 3 C 3.640625 2.996094 3.304688 3.183594 3.121094 3.496094 C 2.941406 3.808594 2.941406 4.191406 3.121094 4.503906 C 3.304688 4.816406 3.640625 5.003906 4 5 L 20 5 C 20.359375 5.003906 20.695312 4.816406 20.878906 4.503906 C 21.058594 4.191406 21.058594 3.808594 20.878906 3.496094 C 20.695312 3.183594 20.359375 2.996094 20 3 L 15 3 L 14.570312 2.570312 C 14.207031 2.203125 13.710938 2 13.195312 2 Z M 4.367188 7 L 5.890625 20.265625 C 6.023438 21.253906 6.878906 22 7.875 22 L 16.121094 22 C 17.121094 22 17.972656 21.253906 18.105469 20.253906 L 19.632812 7 Z M 4.367188 7 "/>
</g>
</svg>
