<svg xmlns="http://www.w3.org/2000/svg" xmlns:xlink="http://www.w3.org/1999/xlink">

  <symbol id="icon-edit" viewBox="0 0 24 24">
    <path d="M 17.019531 5 C 16.515625 5 16.007812 5.191406 15.621094 5.578125 L 14.800781 6.398438 L 17.601562 9.199219 L 18.421875 8.378906 C 19.191406 7.605469 19.191406 6.351562 18.421875 5.578125 C 18.035156 5.191406 17.527344 5 17.019531 5 Z M 13.75 7.449219 L 5.699219 15.5 L 5.699219 18.300781 L 8.5 18.300781 L 16.550781 10.25 Z M 13.75 7.449219 "/>
  </symbol>

  <symbol id="icon-delete" viewBox="0 0 24 24">
    <path d="M 10.804688 2 C 10.289062 2 9.796875 2.203125 9.429688 2.570312 L 9 3 L 4 3 C 3.640625 2.996094 3.304688 3.183594 3.121094 3.496094 C 2.941406 3.808594 2.941406 4.191406 3.121094 4.503906 C 3.304688 4.816406 3.640625 5.003906 4 5 L 20 5 C 20.359375 5.003906 20.695312 4.816406 20.878906 4.503906 C 21.058594 4.191406 21.058594 3.808594 20.878906 3.496094 C 20.695312 3.183594 20.359375 2.996094 20 3 L 15 3 L 14.570312 2.570312 C 14.207031 2.203125 13.710938 2 13.195312 2 Z M 4.367188 7 L 5.890625 20.265625 C 6.023438 21.253906 6.878906 22 7.875 22 L 16.121094 22 C 17.121094 22 17.972656 21.253906 18.105469 20.253906 L 19.632812 7 Z M 4.367188 7 "/>
  </symbol>

</svg>
